<svg version="1.2" baseProfile="tiny-ps" xmlns="http://www.w3.org/2000/svg" viewBox="0 0 1087 555" width="1087" height="555">
	<title>pinky-promise-6018855-ai</title>
	<style>
		tspan { white-space:pre }
		.shp0 { fill: none;stroke: #000000;stroke-linecap:round;stroke-linejoin:round;stroke-width: 20 } 
		.shp1 { fill: none;stroke: #000000;stroke-linecap:round;stroke-linejoin:round;stroke-width: 16 } 
		.shp2 { fill: #353131;stroke: #000000;stroke-linecap:round;stroke-linejoin:round;stroke-width: 16 } 
	</style>
	<g id="DRESS TIP">
		<path id="&lt;Path&gt;" class="shp0" d="M10.15 383.67L67.3 334.44L231.1 502.97L187.98 544.34" />
		<path id="&lt;Path&gt;" class="shp0" d="M1077.04 364.88L1018.66 317.12L859.2 489.77L903.37 530.03" />
	</g>
	<g id="Layer 6">
		<path id="&lt;Path&gt;" class="shp1" d="" />
		<path id="&lt;Path&gt;" class="shp1" d="" />
		<path id="&lt;Path&gt;" class="shp1" d="" />
		<path id="&lt;Path&gt;" class="shp1" d="M747 262.73C732.11 277.11 712.23 280.73 701.87 270.06L638.06 204.37C627.69 193.69 631.19 173.21 646.09 158.84L647.34 157.63C662.24 143.25 682.97 140.52 693.34 151.19L756.72 216.44C767.08 227.11 763.15 247.14 748.26 261.52L747 262.73Z" />
		<path id="&lt;Path&gt;" class="shp1" d="M755.17 214.29L673.98 130.94C660.74 117.31 662.67 94.53 678.13 79.6L679.43 78.35C694.89 63.42 718.77 61.98 731.97 75.65L765.28 107.03" />
		<path id="&lt;Path&gt;" class="shp1" d="M765.28 107.03L733.14 73.93C719.9 60.3 722.04 37.22 737.69 22.12L739 20.84C754.65 5.74 777.5 3.96 790.74 17.6L827.59 54.7" />
		<path id="&lt;Path&gt;" class="shp1" d="" />
		<path id="&lt;Path&gt;" class="shp1" d="" />
		<path id="&lt;Path&gt;" class="shp1" d="" />
		<path id="&lt;Path&gt;" class="shp1" d="" />
		<path id="&lt;Path&gt;" class="shp1" d="M948.42 342.1C1019.36 283.49 1032.41 232.71 987.58 189.75L899.86 104.13C861.88 66.82 835.93 51.72 822 58.82C808.07 65.92 777.45 94.64 730.12 144.96L752.55 169.17C772.37 190.87 800.09 183.12 835.7 145.92C811.04 175.76 815.34 206.17 848.59 237.15" />
		<path id="&lt;Path&gt;" class="shp2" d="" />
		<path id="&lt;Path&gt;" class="shp1" d="M445.36 245.48L587.77 114.73C638.12 105.56 654.66 123.12 637.38 167.43L455.49 350.87C339.88 481.5 261.73 510.21 221.05 436.98" />
		<path id="&lt;Path&gt;" class="shp1" d="M118.7 342.36C72.09 299.87 69.51 255.52 110.98 209.31L161.78 162C189.82 137.5 213.21 117.26 231.97 101.27" />
		<path id="&lt;Path&gt;" class="shp1" d="M225.83 107.04L262.2 70.11C275.54 56.57 298.85 57.72 314.12 72.84L315.4 74.12C330.67 89.24 332.13 112.58 318.8 126.12" />
		<path id="&lt;Path&gt;" class="shp1" d="M308.87 135.68L336.7 111.78C352.59 95.64 379.88 97.32 397.95 115.23L399.47 116.74C417.54 134.65 420 161.56 404.11 177.69L377.92 204.29" />
		<path id="&lt;Path&gt;" class="shp1" d="" />
		<g id="&lt;Group&gt;">
			<path id="&lt;Path&gt;" class="shp1" d="M446.01 244.41C456.45 233.81 453.26 213.14 438.55 198.57L437.32 197.34C422.61 182.77 402.06 179.72 391.62 190.32" />
			<path id="&lt;Path&gt;" class="shp1" d="" />
		</g>
		<g id="&lt;Group&gt;">
			<path id="&lt;Path&gt;" class="shp1" d="M571.88 120.85C561.93 109.8 541.1 111.75 525.68 125.55L524.38 126.71C508.95 140.52 504.68 160.85 514.64 171.9" />
			<path id="&lt;Path&gt;" class="shp1" d="" />
		</g>
		<path id="&lt;Path&gt;" class="shp1" d="M866.49 423.77C818.42 492.38 743.68 455.71 642.27 313.77L577 244.41" />
	</g>
</svg>